<?xml version="1.0" ?><svg id="Outline" viewBox="0 0 512 512" xmlns="http://www.w3.org/2000/svg"><defs><style>.cls-1{fill:#d70000;}</style></defs><path class="cls-1" d="M386.24,264.19H206.86a8,8,0,0,1-5.46-13.84L259,196.46a8,8,0,0,1,10.94,11.69l-42.79,40H386.24a8,8,0,0,1,0,16Z"/><path class="cls-1" d="M264.44,317.7a8,8,0,0,1-5.47-2.16L201.4,261.65A8,8,0,1,1,212.33,250l57.58,53.88a8,8,0,0,1-5.47,13.85Z"/><path class="cls-1" d="M242.87,381.1a125.1,125.1,0,1,1,0-250.2,8,8,0,0,1,0,16,109.1,109.1,0,1,0,0,218.2,8,8,0,0,1,0,16Z"/></svg>