<?xml version="1.0" ?><!DOCTYPE svg  PUBLIC '-//W3C//DTD SVG 1.1//EN'  'http://www.w3.org/Graphics/SVG/1.1/DTD/svg11.dtd'><svg xmlns="http://www.w3.org/2000/svg" xmlns:xlink="http://www.w3.org/1999/xlink" version="1.1" id="Layer_1" width="512px" height="512px" viewBox="0 0 512 512" enable-background="new 0 0 512 512" xml:space="preserve"><g><path fill-rule="evenodd" clip-rule="evenodd" fill="#FFF584" d="M109.62,124.136c-0.176,5.728-0.162,11.994,0.051,18.669   c-26.611,0-53.223,0-79.832,0c-7.759,0-14.049,7.273-14.049,16.24c0,45.991,12.518,93.254,41.709,129.53   c16.965,21.082,57.971,60.229,118.466,60.095c17.727,18.948,39.511,38.496,65.986,38.496v82.725   c-34.481,2.037-86.696,11.39-86.696,34.857c67.162,0,134.326,0,201.487,0c0-17.824-37.714-32.566-86.696-34.959v-82.623   c26.475,0,48.261-19.548,65.986-38.496c59.085,1.744,101.502-39.013,118.468-60.095c29.19-36.276,41.707-83.539,41.707-129.53   c0-8.967-6.288-16.24-14.047-16.24c-26.611,0-53.223,0-79.833,0c0.212-6.675,0.227-12.941,0.049-18.669   C304.792,124.136,207.204,124.136,109.62,124.136L109.62,124.136z M111.997,175.143c4.875,44.717,17.213,98.198,39.697,139.226   c-21.927-5.771-51.103-19.822-73.673-47.87c-17.107-21.261-30.328-50.785-33.483-91.213c21.869,0,43.733,0,65.599,0   C110.767,175.285,111.385,175.237,111.997,175.143L111.997,175.143z M360.302,314.368c22.486-41.027,34.821-94.509,39.7-139.226   l67.46,0.143c-3.155,40.428-16.377,69.952-33.485,91.213C411.409,294.546,382.231,308.598,360.302,314.368z"/><path fill-rule="evenodd" clip-rule="evenodd" fill="#FFF584" d="M401.653,93.559H110.345   C110.345-21.728,401.653-21.394,401.653,93.559z"/><path fill="#F5ACCC" d="M264.911,167.867l24.613,39.688l45.561,11.191c5.573,1.374,8.98,7.002,7.609,12.575   c-0.396,1.612-1.151,3.043-2.157,4.231l-30.254,35.806l3.436,46.8c0.404,5.73-3.913,10.708-9.644,11.11   c-1.639,0.117-3.214-0.154-4.64-0.733l-43.438-17.724l-43.436,17.724c-5.329,2.158-11.392-0.409-13.551-5.734   c-0.658-1.63-0.875-3.322-0.709-4.956l3.411-46.486l-30.255-35.806c-3.705-4.382-3.158-10.943,1.226-14.648   c1.338-1.134,2.881-1.867,4.485-2.22l45.305-11.13l24.695-39.827c3.01-4.873,9.405-6.388,14.281-3.372   C262.001,164.692,264.911,167.867,264.911,167.867z"/><g><path fill="#5B57A4" d="M133.743,249.687c-7.218-25.323-11.92-51.356-14.511-74.908c-0.277-5.264-4.566-6.807-9.095-6.742    l-65.599,0.007c-4.172,0-7.532,3.596-7.222,7.78c1.545,19.784,5.427,37.089,10.966,52.179c6.241,17,14.596,31.213,24.103,43.026    c10.578,13.144,22.546,23.377,34.601,31.208c14.888,9.674,29.916,15.697,42.643,19.072c5.969,1.767,11.552-4.697,8.409-10.422    C147.946,292.472,139.931,271.38,133.743,249.687z M114.861,290.116c-10.867-7.062-21.655-16.283-31.204-28.15    c-8.564-10.641-16.11-23.263-21.781-38.712C57.509,211.35,54.256,198,52.512,183h53.061c2.793,22,7.43,47.016,14.236,70.885    c4.751,16.658,10.568,32.914,17.56,48.161C130.092,299.053,122.458,295.054,114.861,290.116z"/><path fill="#5B57A4" d="M110.345,101h290.672c0.208,0,0.422-0.082,0.636-0.082c4.005,0,7.251-3.299,7.251-7.305    c0-45.407-40.26-74.252-91.763-86.617c-19.346-4.642-40.316-6.982-61.256-6.982c-20.938-0.005-41.902,2.526-61.237,7.171    C143.242,19.53,103.096,48,103.096,94h0.027C103.123,98,106.358,101,110.345,101z M197.99,20.834    c18.235-4.38,38.056-6.479,57.896-6.479c19.838,0.002,39.666,2.069,57.914,6.451C356.062,30.955,389.697,53,393.945,86H118.048    C122.279,53,155.816,30.961,197.99,20.834z"/><path fill="#5B57A4" d="M336.813,211.727l-42.709-10.494l-23.753-38.124c-7.534-10.824-22.159-10.784-29.326,0.829l-23.129,37.295    l-42.253,10.37c-13.006,2.841-18.083,18.717-9.706,28.624l28.342,33.538l-3.187,43.573c-1.186,13.123,12.276,22.734,24.188,17.912    l40.719-16.614l40.721,16.614c12.072,4.895,25.114-3.38,24.223-17.596l-3.221-43.89l28.337-33.538    C354.52,230.24,349.227,214.774,336.813,211.727z M334.423,231.577l-31.59,37.341l3.665,49.754    c0.16,2.301-2.155,4.032-4.342,3.155l-46.065-18.816l-46.247,18.816c-2.239,0.902-4.579-0.945-4.346-3.272l3.648-49.635    l-32.165-38.039c-1.52-1.795-0.527-4.625,1.715-5.117l48.522-11.875l25.633-41.613c1.891-3.061,4.334-3.104,6.205-0.15    c8.596,13.861,17.656,27.605,25.769,41.749l48.534,11.896C336.699,226.59,337.017,228.735,334.423,231.577z"/><path fill="#5B57A4" d="M482.161,136h-72.456c0.021-4,0.012-7.973-0.107-11.84c-0.107-3.924-3.322-7.141-7.222-7.139    l-292.757-0.082c-4.149,0-7.452,3.717-7.239,7.844c-0.103,3.67-0.109,7.217-0.088,11.217H29.839    c-12.569,0-21.298,11.398-21.298,23.268c1.047,25.652,3.496,49.938,11.489,74.485c7.753,23.799,18.916,43.358,31.833,59.408    c10.515,13.065,29.898,32.769,57.176,46.606c17.94,9.1,39.445,15.645,63.943,16.111C189.644,373.391,210,391.013,235,393.984    v69.169c-20,1.579-42.493,5.304-59.517,12.148c-16.096,6.471-27.403,15.938-27.403,29.446c0,4.004,3.171,7.252,7.175,7.252    h201.487c4.104,0,7.314-3.392,7.247-7.454c-0.121-12.034-11.271-22.35-29.374-29.653C319.832,468.934,300,464.658,277,462.991    v-69.007c25-2.97,45.292-20.558,61.935-38.036c23.865,0.114,45.108-6.266,63.068-15.378    c27.523-13.963,47.551-34.364,58.095-47.465c12.918-16.05,24.1-35.665,31.851-59.464c7.993-24.547,10.452-48.722,11.501-74.374    C503.45,147.398,494.728,136,482.161,136z M478.202,229.169c-7.168,22.016-17.456,40.108-29.336,54.869    c-9.703,12.061-28.195,30.823-53.42,43.622C378.557,336.227,359,342.111,336,341.451v0.01c-2-0.055-3.883,0.712-5.351,2.282    c-15.723,16.804-35.987,36.174-60.661,36.174c-4.005,0-7.219,3.248-7.219,7.249l0.034,82.623    c-0.002,3.839,3.021,7.039,6.897,7.218c23.835,1.165,44.809,5.069,59.68,11.062c7.134,2.88,12.669,5.932,16.11,8.932H165.923    c3.196-3,8.421-5.962,14.791-8.521c17.303-6.955,41.868-10.295,61.097-11.461c4.001,0,7.189-3.106,7.189-7.127v-82.725    c0-4.001-3.146-7.249-7.149-7.249c-24.563,0-44.763-19.203-60.439-35.932c-1.327-1.553-3.27-2.534-5.472-2.534    c-23.24,0.051-43.471-6.034-60.398-14.625c-24.974-12.668-42.755-30.782-52.415-42.788    c-11.881-14.761-22.163-32.854-29.334-54.869c-7.06-21.68-10.755-47.339-10.755-70.124c0-3.836,2.31-8.992,6.8-8.992l79.832-0.024    c4.06-0.06,7.349-3.532,7.221-7.64c-0.118-3.732-0.17-7.389-0.168-11.389H395v2.147c0,2.766,0.081,5.689-0.015,8.805    c-0.479,4.249,3.017,8.048,7.342,8.048h79.833c4.489,0,6.798,5.183,6.798,9.019C488.959,182.53,485.494,206.787,478.202,229.169z"/><path fill="#5B57A4" d="M467.462,168h-65.6c-4.346,0-8.511,1.234-9.056,6.361c-2.576,23.66-7.292,49.909-14.553,75.373    C372.069,271.426,364.052,292,353.96,311h0.003c-2.944,5,1.971,12.056,8.178,10.422c12.775-3.363,27.895-9.429,42.87-19.159    c12.056-7.829,24.023-18.077,34.603-31.22c9.503-11.814,17.86-26.034,24.103-43.034c5.502-14.99,9.366-32.18,10.931-51.795    C475.203,171.935,471.839,168,467.462,168z M450.124,223.254c-5.673,15.449-13.221,28.188-21.781,38.829    c-9.548,11.867-20.339,21.03-31.206,28.092c-7.594,4.933-15.23,8.785-22.506,11.778c6.993-15.244,12.808-31.396,17.557-48.053    c6.807-23.871,11.445-48.9,14.236-70.9h53.064C457.742,198,454.491,211.35,450.124,223.254z"/></g></g></svg>